<mxfile host="app.diagrams.net" agent="Mozilla/5.0 (Windows NT 10.0; Win64; x64; rv:133.0) Gecko/20100101 Firefox/133.0" version="25.0.1">
  <diagram name="Page-1" id="TplEGpz9aIAk-DlBbVjE">
    <mxGraphModel dx="1576" dy="2399" grid="1" gridSize="10" guides="1" tooltips="1" connect="1" arrows="1" fold="1" page="1" pageScale="1" pageWidth="850" pageHeight="1100" math="0" shadow="0">
      <root>
        <mxCell id="0" />
        <mxCell id="1" parent="0" />
        <mxCell id="mtfF7J3Mxbu9En80zcPc-3" value="" style="edgeStyle=orthogonalEdgeStyle;rounded=0;orthogonalLoop=1;jettySize=auto;html=1;" edge="1" parent="1" source="mtfF7J3Mxbu9En80zcPc-14" target="mtfF7J3Mxbu9En80zcPc-2">
          <mxGeometry relative="1" as="geometry" />
        </mxCell>
        <mxCell id="mtfF7J3Mxbu9En80zcPc-1" value="Start" style="ellipse;whiteSpace=wrap;html=1;" vertex="1" parent="1">
          <mxGeometry x="365" y="-200" width="120" height="80" as="geometry" />
        </mxCell>
        <mxCell id="mtfF7J3Mxbu9En80zcPc-5" value="" style="edgeStyle=orthogonalEdgeStyle;rounded=0;orthogonalLoop=1;jettySize=auto;html=1;" edge="1" parent="1" source="mtfF7J3Mxbu9En80zcPc-2" target="mtfF7J3Mxbu9En80zcPc-4">
          <mxGeometry relative="1" as="geometry" />
        </mxCell>
        <mxCell id="mtfF7J3Mxbu9En80zcPc-2" value="&lt;div&gt;input&lt;/div&gt;&lt;div&gt;area_code&lt;br&gt;&lt;/div&gt;" style="shape=parallelogram;perimeter=parallelogramPerimeter;whiteSpace=wrap;html=1;fixedSize=1;" vertex="1" parent="1">
          <mxGeometry x="365" y="280" width="120" height="60" as="geometry" />
        </mxCell>
        <mxCell id="mtfF7J3Mxbu9En80zcPc-7" value="" style="edgeStyle=orthogonalEdgeStyle;rounded=0;orthogonalLoop=1;jettySize=auto;html=1;" edge="1" parent="1" source="mtfF7J3Mxbu9En80zcPc-4" target="mtfF7J3Mxbu9En80zcPc-6">
          <mxGeometry relative="1" as="geometry" />
        </mxCell>
        <mxCell id="mtfF7J3Mxbu9En80zcPc-4" value="&lt;div&gt;input&lt;/div&gt;&lt;div&gt;phone_number&lt;br&gt;&lt;/div&gt;" style="shape=parallelogram;perimeter=parallelogramPerimeter;whiteSpace=wrap;html=1;fixedSize=1;" vertex="1" parent="1">
          <mxGeometry x="365" y="420" width="120" height="60" as="geometry" />
        </mxCell>
        <mxCell id="mtfF7J3Mxbu9En80zcPc-9" value="" style="edgeStyle=orthogonalEdgeStyle;rounded=0;orthogonalLoop=1;jettySize=auto;html=1;" edge="1" parent="1" source="mtfF7J3Mxbu9En80zcPc-6" target="mtfF7J3Mxbu9En80zcPc-8">
          <mxGeometry relative="1" as="geometry" />
        </mxCell>
        <mxCell id="mtfF7J3Mxbu9En80zcPc-6" value="&lt;div&gt;input&lt;/div&gt;&lt;div&gt;total_messages&lt;br&gt;&lt;/div&gt;" style="shape=parallelogram;perimeter=parallelogramPerimeter;whiteSpace=wrap;html=1;fixedSize=1;" vertex="1" parent="1">
          <mxGeometry x="365" y="560" width="120" height="60" as="geometry" />
        </mxCell>
        <mxCell id="mtfF7J3Mxbu9En80zcPc-13" value="" style="edgeStyle=orthogonalEdgeStyle;rounded=0;orthogonalLoop=1;jettySize=auto;html=1;" edge="1" parent="1" source="mtfF7J3Mxbu9En80zcPc-8" target="mtfF7J3Mxbu9En80zcPc-12">
          <mxGeometry relative="1" as="geometry" />
        </mxCell>
        <mxCell id="mtfF7J3Mxbu9En80zcPc-17" value="" style="edgeStyle=orthogonalEdgeStyle;rounded=0;orthogonalLoop=1;jettySize=auto;html=1;" edge="1" parent="1" source="mtfF7J3Mxbu9En80zcPc-8" target="mtfF7J3Mxbu9En80zcPc-16">
          <mxGeometry relative="1" as="geometry" />
        </mxCell>
        <mxCell id="mtfF7J3Mxbu9En80zcPc-8" value="if total_messages &amp;gt; 300" style="rhombus;whiteSpace=wrap;html=1;" vertex="1" parent="1">
          <mxGeometry x="385" y="690" width="80" height="80" as="geometry" />
        </mxCell>
        <mxCell id="mtfF7J3Mxbu9En80zcPc-23" value="" style="edgeStyle=orthogonalEdgeStyle;rounded=0;orthogonalLoop=1;jettySize=auto;html=1;" edge="1" parent="1" source="mtfF7J3Mxbu9En80zcPc-12" target="mtfF7J3Mxbu9En80zcPc-22">
          <mxGeometry relative="1" as="geometry" />
        </mxCell>
        <mxCell id="mtfF7J3Mxbu9En80zcPc-25" value="" style="edgeStyle=orthogonalEdgeStyle;rounded=0;orthogonalLoop=1;jettySize=auto;html=1;" edge="1" parent="1" source="mtfF7J3Mxbu9En80zcPc-12" target="mtfF7J3Mxbu9En80zcPc-24">
          <mxGeometry relative="1" as="geometry" />
        </mxCell>
        <mxCell id="mtfF7J3Mxbu9En80zcPc-12" value="else if total_messages &amp;gt; 100 and &amp;lt; 300" style="rhombus;whiteSpace=wrap;html=1;" vertex="1" parent="1">
          <mxGeometry x="385" y="850" width="80" height="80" as="geometry" />
        </mxCell>
        <mxCell id="mtfF7J3Mxbu9En80zcPc-15" value="" style="edgeStyle=orthogonalEdgeStyle;rounded=0;orthogonalLoop=1;jettySize=auto;html=1;" edge="1" parent="1" source="mtfF7J3Mxbu9En80zcPc-43" target="mtfF7J3Mxbu9En80zcPc-14">
          <mxGeometry relative="1" as="geometry">
            <mxPoint x="425" y="90" as="sourcePoint" />
            <mxPoint x="425" y="280" as="targetPoint" />
          </mxGeometry>
        </mxCell>
        <mxCell id="mtfF7J3Mxbu9En80zcPc-14" value="total_bill = float" style="rounded=0;whiteSpace=wrap;html=1;" vertex="1" parent="1">
          <mxGeometry x="365" y="160" width="120" height="60" as="geometry" />
        </mxCell>
        <mxCell id="mtfF7J3Mxbu9En80zcPc-31" style="edgeStyle=orthogonalEdgeStyle;rounded=0;orthogonalLoop=1;jettySize=auto;html=1;entryX=0.5;entryY=0;entryDx=0;entryDy=0;" edge="1" parent="1" source="mtfF7J3Mxbu9En80zcPc-16" target="mtfF7J3Mxbu9En80zcPc-28">
          <mxGeometry relative="1" as="geometry" />
        </mxCell>
        <mxCell id="mtfF7J3Mxbu9En80zcPc-16" value="total_bill = (total_messages - 300) * 0.02 + 200 * 0.03 + 5" style="whiteSpace=wrap;html=1;" vertex="1" parent="1">
          <mxGeometry x="525" y="700" width="120" height="60" as="geometry" />
        </mxCell>
        <mxCell id="mtfF7J3Mxbu9En80zcPc-29" style="edgeStyle=orthogonalEdgeStyle;rounded=0;orthogonalLoop=1;jettySize=auto;html=1;entryX=0;entryY=0.5;entryDx=0;entryDy=0;" edge="1" parent="1" source="mtfF7J3Mxbu9En80zcPc-22" target="mtfF7J3Mxbu9En80zcPc-28">
          <mxGeometry relative="1" as="geometry" />
        </mxCell>
        <mxCell id="mtfF7J3Mxbu9En80zcPc-22" value="total_bill = (total_messages - 100) * 0.02 + 5" style="whiteSpace=wrap;html=1;" vertex="1" parent="1">
          <mxGeometry x="525" y="860" width="120" height="60" as="geometry" />
        </mxCell>
        <mxCell id="mtfF7J3Mxbu9En80zcPc-27" value="" style="edgeStyle=orthogonalEdgeStyle;rounded=0;orthogonalLoop=1;jettySize=auto;html=1;" edge="1" parent="1" source="mtfF7J3Mxbu9En80zcPc-24" target="mtfF7J3Mxbu9En80zcPc-26">
          <mxGeometry relative="1" as="geometry" />
        </mxCell>
        <mxCell id="mtfF7J3Mxbu9En80zcPc-24" value="&lt;div&gt;else total_messages &amp;lt; 100&lt;br&gt;&lt;/div&gt;" style="rhombus;whiteSpace=wrap;html=1;" vertex="1" parent="1">
          <mxGeometry x="385" y="1010" width="80" height="80" as="geometry" />
        </mxCell>
        <mxCell id="mtfF7J3Mxbu9En80zcPc-30" style="edgeStyle=orthogonalEdgeStyle;rounded=0;orthogonalLoop=1;jettySize=auto;html=1;entryX=0.5;entryY=1;entryDx=0;entryDy=0;" edge="1" parent="1" source="mtfF7J3Mxbu9En80zcPc-26" target="mtfF7J3Mxbu9En80zcPc-28">
          <mxGeometry relative="1" as="geometry" />
        </mxCell>
        <mxCell id="mtfF7J3Mxbu9En80zcPc-26" value="total_bill = total_messages * 5" style="whiteSpace=wrap;html=1;" vertex="1" parent="1">
          <mxGeometry x="525" y="1020" width="120" height="60" as="geometry" />
        </mxCell>
        <mxCell id="mtfF7J3Mxbu9En80zcPc-36" value="" style="edgeStyle=orthogonalEdgeStyle;rounded=0;orthogonalLoop=1;jettySize=auto;html=1;" edge="1" parent="1" source="mtfF7J3Mxbu9En80zcPc-28" target="mtfF7J3Mxbu9En80zcPc-35">
          <mxGeometry relative="1" as="geometry" />
        </mxCell>
        <mxCell id="mtfF7J3Mxbu9En80zcPc-28" value="&lt;div&gt;with_taxes = total_bill + 14%&lt;/div&gt;&lt;div&gt;without_taxes = total_bill&lt;br&gt;&lt;/div&gt;" style="rounded=0;whiteSpace=wrap;html=1;" vertex="1" parent="1">
          <mxGeometry x="720" y="860" width="120" height="60" as="geometry" />
        </mxCell>
        <mxCell id="mtfF7J3Mxbu9En80zcPc-38" value="" style="edgeStyle=orthogonalEdgeStyle;rounded=0;orthogonalLoop=1;jettySize=auto;html=1;" edge="1" parent="1" source="mtfF7J3Mxbu9En80zcPc-35" target="mtfF7J3Mxbu9En80zcPc-37">
          <mxGeometry relative="1" as="geometry" />
        </mxCell>
        <mxCell id="mtfF7J3Mxbu9En80zcPc-35" value="&lt;div&gt;output&lt;/div&gt;&lt;div&gt;area_code&lt;br&gt;&lt;/div&gt;" style="shape=parallelogram;perimeter=parallelogramPerimeter;whiteSpace=wrap;html=1;fixedSize=1;rounded=0;" vertex="1" parent="1">
          <mxGeometry x="920" y="860" width="120" height="60" as="geometry" />
        </mxCell>
        <mxCell id="mtfF7J3Mxbu9En80zcPc-40" value="" style="edgeStyle=orthogonalEdgeStyle;rounded=0;orthogonalLoop=1;jettySize=auto;html=1;" edge="1" parent="1" source="mtfF7J3Mxbu9En80zcPc-37" target="mtfF7J3Mxbu9En80zcPc-39">
          <mxGeometry relative="1" as="geometry" />
        </mxCell>
        <mxCell id="mtfF7J3Mxbu9En80zcPc-37" value="&lt;div&gt;output&lt;/div&gt;&lt;div&gt;phone_number&lt;br&gt;&lt;/div&gt;" style="shape=parallelogram;perimeter=parallelogramPerimeter;whiteSpace=wrap;html=1;fixedSize=1;rounded=0;" vertex="1" parent="1">
          <mxGeometry x="1120" y="860" width="120" height="60" as="geometry" />
        </mxCell>
        <mxCell id="mtfF7J3Mxbu9En80zcPc-48" value="" style="edgeStyle=orthogonalEdgeStyle;rounded=0;orthogonalLoop=1;jettySize=auto;html=1;" edge="1" parent="1" source="mtfF7J3Mxbu9En80zcPc-39" target="mtfF7J3Mxbu9En80zcPc-47">
          <mxGeometry relative="1" as="geometry" />
        </mxCell>
        <mxCell id="mtfF7J3Mxbu9En80zcPc-39" value="&lt;div&gt;output&lt;/div&gt;&lt;div&gt;total_messages&lt;br&gt;&lt;/div&gt;" style="shape=parallelogram;perimeter=parallelogramPerimeter;whiteSpace=wrap;html=1;fixedSize=1;rounded=0;" vertex="1" parent="1">
          <mxGeometry x="1320" y="860" width="120" height="60" as="geometry" />
        </mxCell>
        <mxCell id="mtfF7J3Mxbu9En80zcPc-44" value="" style="edgeStyle=orthogonalEdgeStyle;rounded=0;orthogonalLoop=1;jettySize=auto;html=1;" edge="1" parent="1" source="mtfF7J3Mxbu9En80zcPc-45" target="mtfF7J3Mxbu9En80zcPc-43">
          <mxGeometry relative="1" as="geometry">
            <mxPoint x="425" y="-10" as="sourcePoint" />
            <mxPoint x="425" y="160" as="targetPoint" />
          </mxGeometry>
        </mxCell>
        <mxCell id="mtfF7J3Mxbu9En80zcPc-43" value="with_taxes= float" style="rounded=0;whiteSpace=wrap;html=1;" vertex="1" parent="1">
          <mxGeometry x="365" y="40" width="120" height="60" as="geometry" />
        </mxCell>
        <mxCell id="mtfF7J3Mxbu9En80zcPc-46" value="" style="edgeStyle=orthogonalEdgeStyle;rounded=0;orthogonalLoop=1;jettySize=auto;html=1;" edge="1" parent="1" source="mtfF7J3Mxbu9En80zcPc-1" target="mtfF7J3Mxbu9En80zcPc-45">
          <mxGeometry relative="1" as="geometry">
            <mxPoint x="425" y="-120" as="sourcePoint" />
            <mxPoint x="425" y="40" as="targetPoint" />
          </mxGeometry>
        </mxCell>
        <mxCell id="mtfF7J3Mxbu9En80zcPc-45" value="without_taxes = float" style="rounded=0;whiteSpace=wrap;html=1;" vertex="1" parent="1">
          <mxGeometry x="365" y="-80" width="120" height="60" as="geometry" />
        </mxCell>
        <mxCell id="mtfF7J3Mxbu9En80zcPc-50" value="" style="edgeStyle=orthogonalEdgeStyle;rounded=0;orthogonalLoop=1;jettySize=auto;html=1;" edge="1" parent="1" source="mtfF7J3Mxbu9En80zcPc-47" target="mtfF7J3Mxbu9En80zcPc-49">
          <mxGeometry relative="1" as="geometry" />
        </mxCell>
        <mxCell id="mtfF7J3Mxbu9En80zcPc-47" value="&lt;div&gt;output&lt;/div&gt;&lt;div&gt;without_taxes&lt;br&gt;&lt;/div&gt;" style="shape=parallelogram;perimeter=parallelogramPerimeter;whiteSpace=wrap;html=1;fixedSize=1;rounded=0;" vertex="1" parent="1">
          <mxGeometry x="1520" y="860" width="120" height="60" as="geometry" />
        </mxCell>
        <mxCell id="mtfF7J3Mxbu9En80zcPc-52" style="edgeStyle=orthogonalEdgeStyle;rounded=0;orthogonalLoop=1;jettySize=auto;html=1;entryX=0;entryY=0.5;entryDx=0;entryDy=0;" edge="1" parent="1" source="mtfF7J3Mxbu9En80zcPc-49" target="mtfF7J3Mxbu9En80zcPc-51">
          <mxGeometry relative="1" as="geometry" />
        </mxCell>
        <mxCell id="mtfF7J3Mxbu9En80zcPc-49" value="&lt;div&gt;output&lt;/div&gt;&lt;div&gt;with_taxes&lt;br&gt;&lt;/div&gt;" style="shape=parallelogram;perimeter=parallelogramPerimeter;whiteSpace=wrap;html=1;fixedSize=1;rounded=0;" vertex="1" parent="1">
          <mxGeometry x="1720" y="860" width="120" height="60" as="geometry" />
        </mxCell>
        <mxCell id="mtfF7J3Mxbu9En80zcPc-51" value="Stop" style="ellipse;whiteSpace=wrap;html=1;" vertex="1" parent="1">
          <mxGeometry x="1910" y="850" width="120" height="80" as="geometry" />
        </mxCell>
      </root>
    </mxGraphModel>
  </diagram>
</mxfile>
